<svg width="98" height="19" viewBox="0 0 98 19" fill="none" xmlns="http://www.w3.org/2000/svg">
<path d="M9.032 2.16V4.056H4.304V8.904H8.312V10.824H4.304V16.104H9.368L9.2 18H0.32V2.16H9.032ZM21.9024 15.6C21.9024 16.048 21.9584 16.44 22.0704 16.776C22.1824 17.112 22.3744 17.408 22.6464 17.664C22.4544 17.888 22.1824 18.056 21.8304 18.168C21.4944 18.296 21.1504 18.36 20.7984 18.36C20.2224 18.36 19.7344 18.24 19.3344 18C18.9344 17.744 18.6624 17.384 18.5184 16.92C18.1984 17.464 17.7504 17.864 17.1744 18.12C16.6144 18.392 15.9824 18.528 15.2784 18.528C14.1104 18.528 13.2144 18.28 12.5904 17.784C11.9824 17.288 11.5744 16.6 11.3664 15.72C11.1584 14.84 11.0544 13.712 11.0544 12.336V5.76H14.7744V12.216C14.7744 13.224 14.7984 14.04 14.8464 14.664C14.9104 15.272 15.0624 15.784 15.3024 16.2C15.5584 16.6 15.9504 16.8 16.4784 16.8C17.0864 16.8 17.5264 16.544 17.7984 16.032C18.0864 15.52 18.2304 14.88 18.2304 14.112V5.76H21.9024V15.6ZM36.311 6.672C36.311 7.76 36.047 8.688 35.519 9.456C35.007 10.224 34.295 10.768 33.383 11.088L37.367 18H33.215L29.663 10.632C29.551 10.344 29.495 10.104 29.495 9.912C30.519 9.912 31.247 9.656 31.679 9.144C32.127 8.616 32.351 7.824 32.351 6.768C32.351 4.784 31.543 3.792 29.927 3.792C29.527 3.792 29.111 3.832 28.679 3.912V18H24.695V2.328C26.759 2.136 28.535 2.04 30.023 2.04C32.007 2.04 33.551 2.392 34.655 3.096C35.759 3.784 36.311 4.976 36.311 6.672ZM47.5706 14.256C47.9866 14.448 48.1946 14.84 48.1946 15.432C48.1946 16.088 47.9786 16.648 47.5466 17.112C47.1146 17.576 46.5546 17.928 45.8666 18.168C45.1946 18.408 44.4986 18.528 43.7786 18.528C41.8586 18.528 40.4026 17.944 39.4106 16.776C38.4346 15.608 37.9466 14.008 37.9466 11.976C37.9466 9.88 38.4746 8.24 39.5306 7.056C40.6026 5.872 42.1466 5.28 44.1626 5.28C45.4586 5.28 46.5306 5.576 47.3786 6.168C48.2266 6.76 48.6506 7.632 48.6506 8.784C48.6506 10.208 48.1466 11.192 47.1386 11.736C46.1306 12.28 44.7546 12.552 43.0106 12.552C42.4666 12.552 42.0426 12.528 41.7386 12.48C41.7866 13.616 42.0026 14.512 42.3866 15.168C42.7866 15.824 43.4506 16.152 44.3786 16.152C45.0666 16.152 45.6906 15.992 46.2506 15.672C46.8266 15.336 47.2666 14.864 47.5706 14.256ZM43.8026 6.696C43.0346 6.696 42.4986 7.168 42.1946 8.112C41.9066 9.04 41.7546 10.128 41.7386 11.376H42.2186C43.2266 11.392 43.9866 11.208 44.4986 10.824C45.0266 10.44 45.2906 9.784 45.2906 8.856C45.2906 8.248 45.1626 7.736 44.9066 7.32C44.6666 6.904 44.2986 6.696 43.8026 6.696ZM55.6597 6.72C54.3477 6.72 53.6917 8.408 53.6917 11.784C53.6917 13.128 53.8757 14.192 54.2437 14.976C54.6117 15.76 55.3077 16.152 56.3317 16.152C57.0037 16.152 57.5717 15.976 58.0357 15.624C58.5157 15.272 58.8677 14.776 59.0917 14.136C59.3637 14.232 59.5717 14.392 59.7157 14.616C59.8597 14.824 59.9317 15.072 59.9317 15.36C59.9317 16.032 59.7317 16.608 59.3317 17.088C58.9317 17.552 58.4117 17.904 57.7717 18.144C57.1317 18.4 56.4517 18.528 55.7317 18.528C53.8117 18.528 52.3557 17.944 51.3637 16.776C50.3877 15.608 49.8997 14.008 49.8997 11.976C49.8997 9.896 50.4197 8.264 51.4597 7.08C52.4997 5.88 54.0197 5.28 56.0197 5.28C57.2357 5.28 58.2357 5.512 59.0197 5.976C59.8197 6.424 60.2197 7.152 60.2197 8.16C60.2197 8.768 60.0037 9.224 59.5717 9.528C59.1397 9.832 58.5877 9.984 57.9157 9.984C57.7237 9.984 57.5157 9.968 57.2917 9.936C57.0837 9.888 56.9237 9.824 56.8117 9.744C56.9077 9.264 56.9557 8.888 56.9557 8.616C56.9557 7.352 56.5237 6.72 55.6597 6.72ZM63.8578 0.335999C64.5138 0.335999 65.0338 0.487999 65.4178 0.792C65.8178 1.096 66.0178 1.52 66.0178 2.064C66.0178 2.624 65.8098 3.056 65.3938 3.36C64.9778 3.648 64.4418 3.792 63.7858 3.792C63.1458 3.792 62.6178 3.648 62.2018 3.36C61.8018 3.056 61.6018 2.64 61.6018 2.112C61.6018 1.552 61.8098 1.12 62.2258 0.816C62.6578 0.495999 63.2018 0.335999 63.8578 0.335999ZM65.5858 15.6C65.5858 16.048 65.6418 16.44 65.7538 16.776C65.8658 17.112 66.0578 17.408 66.3298 17.664C66.1538 17.888 65.8818 18.056 65.5138 18.168C65.1618 18.296 64.8098 18.36 64.4578 18.36C63.6258 18.36 62.9938 18.152 62.5618 17.736C62.1298 17.304 61.9138 16.672 61.9138 15.84V5.76H65.5858V15.6ZM73.5425 6.72C72.2305 6.72 71.5745 8.408 71.5745 11.784C71.5745 13.128 71.7585 14.192 72.1265 14.976C72.4945 15.76 73.1905 16.152 74.2145 16.152C74.8865 16.152 75.4545 15.976 75.9185 15.624C76.3985 15.272 76.7505 14.776 76.9745 14.136C77.2465 14.232 77.4545 14.392 77.5985 14.616C77.7425 14.824 77.8145 15.072 77.8145 15.36C77.8145 16.032 77.6145 16.608 77.2145 17.088C76.8145 17.552 76.2945 17.904 75.6545 18.144C75.0145 18.4 74.3345 18.528 73.6145 18.528C71.6945 18.528 70.2385 17.944 69.2465 16.776C68.2705 15.608 67.7825 14.008 67.7825 11.976C67.7825 9.896 68.3025 8.264 69.3425 7.08C70.3825 5.88 71.9025 5.28 73.9025 5.28C75.1185 5.28 76.1185 5.512 76.9025 5.976C77.7025 6.424 78.1025 7.152 78.1025 8.16C78.1025 8.768 77.8865 9.224 77.4545 9.528C77.0225 9.832 76.4705 9.984 75.7985 9.984C75.6065 9.984 75.3985 9.968 75.1745 9.936C74.9665 9.888 74.8065 9.824 74.6945 9.744C74.7905 9.264 74.8385 8.888 74.8385 8.616C74.8385 7.352 74.4065 6.72 73.5425 6.72ZM83.5166 0.816V15.6C83.5166 16.048 83.5726 16.44 83.6846 16.776C83.7966 17.112 83.9886 17.408 84.2606 17.664C84.0846 17.888 83.8126 18.056 83.4446 18.168C83.0926 18.296 82.7406 18.36 82.3886 18.36C81.5566 18.36 80.9246 18.152 80.4926 17.736C80.0606 17.304 79.8446 16.672 79.8446 15.84V1.2L83.5166 0.816ZM91.5905 5.28C93.5105 5.28 94.9505 5.848 95.9105 6.984C96.8865 8.12 97.3745 9.696 97.3745 11.712C97.3745 13.792 96.8865 15.448 95.9105 16.68C94.9345 17.912 93.4945 18.528 91.5905 18.528C89.7025 18.528 88.2625 17.936 87.2705 16.752C86.2785 15.568 85.7825 13.968 85.7825 11.952C85.7825 9.904 86.2705 8.28 87.2465 7.08C88.2385 5.88 89.6865 5.28 91.5905 5.28ZM91.5905 17.088C92.4225 17.088 92.9585 16.6 93.1985 15.624C93.4385 14.648 93.5585 13.384 93.5585 11.832C93.5585 10.36 93.4305 9.144 93.1745 8.184C92.9185 7.208 92.3905 6.72 91.5905 6.72C90.7905 6.72 90.2625 7.208 90.0065 8.184C89.7505 9.16 89.6225 10.376 89.6225 11.832C89.6225 13.384 89.7425 14.648 89.9825 15.624C90.2225 16.6 90.7585 17.088 91.5905 17.088Z" fill="white"/>
</svg>
