<svg width="73" height="72" viewBox="0 0 73 72" fill="none" xmlns="http://www.w3.org/2000/svg">
<path d="M52.4537 24.9863C52.4395 24.7416 52.3358 24.5107 52.1626 24.3375C51.9893 24.1642 51.7584 24.0606 51.5137 24.0463C45.0437 23.6713 39.8487 25.6388 37.6162 29.3238C36.1412 31.76 36.1437 34.7188 37.5962 37.5413C36.7695 38.5255 36.1653 39.6768 35.825 40.9163L33.7912 38.875C34.7687 36.8338 34.7312 34.7063 33.6662 32.9388C32.0162 30.215 28.2075 28.755 23.4787 29.0325C23.2341 29.0468 23.0032 29.1504 22.8299 29.3237C22.6567 29.497 22.553 29.7279 22.5387 29.9725C22.26 34.7013 23.7212 38.51 26.445 40.16C27.3438 40.7092 28.3767 40.9998 29.43 41C30.4524 40.9874 31.4588 40.7452 32.375 40.2913L35.5 43.4163V47C35.5 47.2652 35.6054 47.5196 35.7929 47.7071C35.9804 47.8947 36.2348 48 36.5 48C36.7652 48 37.0196 47.8947 37.2071 47.7071C37.3946 47.5196 37.5 47.2652 37.5 47V43.3138C37.4955 41.7229 38.0369 40.1786 39.0337 38.9388C40.3199 39.6109 41.7464 39.9706 43.1975 39.9888C44.6005 39.9933 45.9774 39.61 47.1762 38.8813C50.8612 36.6513 52.8337 31.4563 52.4537 24.9863ZM27.4762 38.45C25.5587 37.2888 24.4737 34.54 24.5 31C28.04 30.97 30.7887 32.0588 31.95 33.9763C32.5562 34.9763 32.655 36.1425 32.2575 37.3438L29.2062 34.2925C29.0172 34.1129 28.7654 34.0142 28.5047 34.0176C28.2439 34.0209 27.9948 34.126 27.8104 34.3104C27.626 34.4948 27.5209 34.7439 27.5176 35.0047C27.5142 35.2655 27.6129 35.5172 27.7925 35.7063L30.8437 38.7575C29.6425 39.155 28.4775 39.0563 27.4762 38.45ZM46.14 37.1725C44.465 38.1863 42.4962 38.2638 40.4962 37.4225L47.2075 30.71C47.3871 30.521 47.4858 30.2692 47.4824 30.0084C47.4791 29.7477 47.374 29.4985 47.1896 29.3141C47.0052 29.1297 46.7561 29.0247 46.4953 29.0213C46.2346 29.018 45.9828 29.1166 45.7937 29.2963L39.0812 36C38.2362 34 38.3125 32.03 39.3312 30.3563C41.0737 27.4813 45.2062 25.8788 50.4975 26.0025C50.6175 31.2925 49.0175 35.43 46.14 37.1725Z" fill="#4ADE80"/>
<path d="M50.5625 9C44.7547 9 39.6697 11.4975 36.5 15.7191C33.3303 11.4975 28.2453 9 22.4375 9C17.8144 9.00521 13.3821 10.844 10.1131 14.1131C6.84404 17.3821 5.00521 21.8144 5 26.4375C5 46.125 34.1909 62.0606 35.4341 62.7188C35.7617 62.895 36.128 62.9873 36.5 62.9873C36.872 62.9873 37.2383 62.895 37.5659 62.7188C38.8091 62.0606 68 46.125 68 26.4375C67.9948 21.8144 66.156 17.3821 62.8869 14.1131C59.6179 10.844 55.1856 9.00521 50.5625 9ZM36.5 58.1625C31.3644 55.17 9.5 41.5378 9.5 26.4375C9.50447 23.0076 10.869 19.7195 13.2942 17.2942C15.7195 14.869 19.0076 13.5045 22.4375 13.5C27.9078 13.5 32.5006 16.4138 34.4187 21.0938C34.5883 21.5064 34.8766 21.8594 35.2472 22.1078C35.6178 22.3562 36.0539 22.4888 36.5 22.4888C36.9461 22.4888 37.3822 22.3562 37.7528 22.1078C38.1234 21.8594 38.4117 21.5064 38.5812 21.0938C40.4994 16.4053 45.0922 13.5 50.5625 13.5C53.9924 13.5045 57.2805 14.869 59.7058 17.2942C62.131 19.7195 63.4955 23.0076 63.5 26.4375C63.5 41.5153 41.63 55.1672 36.5 58.1625Z" fill="#4ADE80"/>
</svg>
